HIERARCHY
ROOT Hips
{
	OFFSET 48.330502 -34.932716 99.126595
	CHANNELS 6 Xposition Yposition Zposition Xrotation Yrotation Zrotation
	JOINT spine
	{
		OFFSET 0.000000 -0.477356 8.301041
		CHANNELS 3 Xrotation Yrotation Zrotation
		JOINT spine1
		{
			OFFSET 0.000000 0.000000 10.456497
			CHANNELS 3 Xrotation Yrotation Zrotation
			JOINT spine2
			{
				OFFSET 0.000000 0.000000 10.019203
				CHANNELS 3 Xrotation Yrotation Zrotation
				JOINT Neck
				{
					OFFSET 0.000000 -1.226418 25.723511
					CHANNELS 3 Xrotation Yrotation Zrotation
					JOINT Head
					{
						OFFSET 0.000000 0.000000 7.771744
						CHANNELS 3 Xrotation Yrotation Zrotation
						End Site
						{
							OFFSET 0.000000 6.203938 18.811996
						}
					}
				}
				JOINT RightShoulder
				{
					OFFSET -4.218800 0.587437 10.820007
					CHANNELS 3 Xrotation Yrotation Zrotation
					JOINT RightArm
					{
						OFFSET 0.000000 -0.000004 14.191406
						CHANNELS 3 Xrotation Yrotation Zrotation
						JOINT RightArmRoll
						{
							OFFSET 0.000000 0.000000 7.164078
							CHANNELS 3 Xrotation Yrotation Zrotation
							JOINT RightForeArm
							{
								OFFSET 0.000000 -0.000004 20.866501
								CHANNELS 3 Xrotation Yrotation Zrotation
								JOINT RightForeArmRoll
								{
									OFFSET 0.000000 0.000000 8.039215
									CHANNELS 3 Xrotation Yrotation Zrotation
									JOINT RightHand
									{
										OFFSET 0.000000 -0.000004 16.132996
										CHANNELS 3 Xrotation Yrotation Zrotation
										End Site
										{
											OFFSET 0.000000 0.000000 0.100006
										}
									}
								}
							}
						}
					}
				}
				JOINT LeftShoulder
				{
					OFFSET 4.218800 0.587437 10.820007
					CHANNELS 3 Xrotation Yrotation Zrotation
					JOINT LeftArm
					{
						OFFSET 0.000000 -0.000004 14.191406
						CHANNELS 3 Xrotation Yrotation Zrotation
						JOINT LeftArmRoll
						{
							OFFSET 0.000000 0.000000 7.164078
							CHANNELS 3 Xrotation Yrotation Zrotation
							JOINT LeftForeArm
							{
								OFFSET 0.000000 -0.000004 20.866501
								CHANNELS 3 Xrotation Yrotation Zrotation
								JOINT LeftForeArmRoll
								{
									OFFSET 0.000000 0.000000 8.039215
									CHANNELS 3 Xrotation Yrotation Zrotation
									JOINT LeftHand
									{
										OFFSET 0.000000 -0.000004 16.132996
										CHANNELS 3 Xrotation Yrotation Zrotation
										End Site
										{
											OFFSET 0.000000 0.000000 0.100006
										}
									}
								}
							}
						}
					}
				}
			}
		}
	}
	JOINT RightUpLeg
	{
		OFFSET -7.357731 1.131821 -1.349213
		CHANNELS 3 Xrotation Yrotation Zrotation
		JOINT RightUpLegRoll
		{
			OFFSET 0.000000 -0.000004 18.916801
			CHANNELS 3 Xrotation Yrotation Zrotation
			JOINT RightLeg
			{
				OFFSET 0.000000 0.000004 -23.425598
				CHANNELS 3 Xrotation Yrotation Zrotation
				JOINT RightLegRoll
				{
					OFFSET 0.000000 -0.000004 23.502296
					CHANNELS 3 Xrotation Yrotation Zrotation
					JOINT RightFoot
					{
						OFFSET 0.000000 -0.000004 19.561714
						CHANNELS 3 Xrotation Yrotation Zrotation
						JOINT RightToeBase
						{
							OFFSET 0.000000 -0.000004 16.352600
							CHANNELS 3 Xrotation Yrotation Zrotation
							End Site
							{
								OFFSET 0.006931 0.912838 7.919434
							}
						}
					}
				}
			}
		}
	}
	JOINT LeftUpLeg
	{
		OFFSET 7.357731 1.131821 -1.349213
		CHANNELS 3 Xrotation Yrotation Zrotation
		JOINT LeftUpLegRoll
		{
			OFFSET 0.000000 -0.000004 18.916901
			CHANNELS 3 Xrotation Yrotation Zrotation
			JOINT LeftLeg
			{
				OFFSET 0.000000 -0.000004 23.425514
				CHANNELS 3 Xrotation Yrotation Zrotation
				JOINT LeftLegRoll
				{
					OFFSET 0.000000 -0.000004 23.719498
					CHANNELS 3 Xrotation Yrotation Zrotation
					JOINT LeftFoot
					{
						OFFSET 0.000000 -0.000004 19.344406
						CHANNELS 3 Xrotation Yrotation Zrotation
						JOINT LeftToeBase
						{
							OFFSET 0.000000 -0.000004 16.352600
							CHANNELS 3 Xrotation Yrotation Zrotation
							End Site
							{
								OFFSET -0.031063 0.912838 7.919434
							}
						}
					}
				}
			}
		}
	}
}
MOTION
Frames: 11
Frame Time: 0.041667
48.016197 -15.747221 83.043793 14.815783 0.774711 -0.124244 1.469652 -0.539789 0.110584 6.943542 -1.072577 0.239877 8.588752 -1.069582 0.252846 -10.004201 5.755134 0.217886 -8.203664 -2.140541 -1.109344 -7.296677 -58.564071 -8.584867 -52.961400 -128.515460 -45.962153 0.000000 0.000000 0.000000 33.747691 -11.802092 2.541608 0.000001 0.000001 -3.006310 -4.999678 -7.999038 0.000012 -9.009168 60.222379 10.720486 -57.536305 120.045492 63.049995 0.000000 -0.000000 0.000000 44.767396 11.223894 -3.532827 -0.000004 -0.000004 2.999980 -4.999913 7.999184 -0.000063 -58.916290 -168.266847 6.387983 179.999991 0.000006 -0.891006 117.441169 -7.716639 -6.023267 0.000000 -0.000002 1.177200 78.838326 7.744791 -1.685588 28.383911 -7.346152 0.372649 -60.354734 164.942184 -4.809965 -0.000023 -0.000005 -0.798666 -65.401397 5.845851 4.788008 -0.000006 0.000000 -1.294309 76.321087 -6.731013 -2.038041 32.222094 7.304455 -0.874925 
48.025997 -15.837519 83.216583 14.755644 0.765431 -0.116979 1.456954 -0.540832 0.113221 6.918172 -1.074591 0.245069 8.563388 -1.071542 0.258049 -9.927058 5.812984 0.213529 -8.209326 -2.179092 -1.122860 -7.294567 -58.551032 -8.581359 -52.949279 -128.555129 -45.746397 0.000000 0.000000 0.000000 33.223720 -11.778257 2.502068 0.000000 0.000002 -3.006309 -4.999679 -7.999038 0.000012 -8.959723 60.291555 10.667132 -57.555019 119.981671 63.017135 -0.000000 0.000001 0.000001 44.494256 11.287098 -3.543942 -0.000003 -0.000004 2.999982 -4.999908 7.999183 -0.000065 -58.584916 -168.305943 6.360256 179.999991 0.000006 -0.889995 117.782992 -7.753883 -6.009579 -0.000000 -0.000002 1.168760 78.749732 7.746065 -1.670306 28.405430 -7.346002 0.375167 -60.016531 164.997426 -4.792249 -0.000026 -0.000005 -0.798440 -65.056377 5.894046 4.789005 -0.000006 0.000000 -1.280929 76.236140 -6.730647 -2.046966 32.239357 7.304116 -0.876764 
48.014698 -15.918207 83.373093 14.695207 0.755896 -0.109593 1.444153 -0.541853 0.115891 6.892581 -1.076585 0.250347 8.537797 -1.073463 0.263335 -9.847441 5.870493 0.208516 -8.216687 -2.217949 -1.136749 -7.293270 -58.538970 -8.578886 -52.938997 -128.592190 -45.533958 0.000000 -0.000000 -0.000000 32.703608 -11.752367 2.462494 0.000004 0.000001 -3.006310 -4.999678 -7.999037 0.000012 -8.908052 60.361271 10.611215 -57.576466 119.916511 62.987253 0.000001 -0.000000 0.000000 44.223822 11.349032 -3.554563 -0.000006 -0.000006 2.999978 -4.999911 7.999185 -0.000063 -58.253550 -168.345407 6.333254 179.999991 0.000005 -0.888998 118.124939 -7.790305 -5.996820 0.000001 -0.000002 1.160400 78.660536 7.747218 -1.654597 28.427054 -7.345853 0.377715 -59.678293 165.053652 -4.774374 -0.000025 -0.000005 -0.798264 -64.710524 5.941630 4.789189 -0.000003 0.000000 -1.267591 76.150722 -6.730270 -2.056015 32.256115 7.303801 -0.878527 
48.012096 -16.007620 83.543793 14.634370 0.746180 -0.102031 1.431273 -0.542804 0.118549 6.866867 -1.078460 0.255610 8.512078 -1.075286 0.268607 -9.765372 5.927172 0.203117 -8.225689 -2.256964 -1.150626 -7.292599 -58.528069 -8.577233 -52.929847 -128.627475 -45.323544 0.000000 -0.000000 0.000000 32.186812 -11.724287 2.422722 0.000000 0.000002 -3.006310 -4.999679 -7.999036 0.000012 -8.855040 60.430440 10.553698 -57.598070 119.851365 62.956893 0.000001 0.000001 -0.000000 43.954432 11.409783 -3.564476 -0.000002 -0.000005 2.999980 -4.999917 7.999185 -0.000062 -57.922361 -168.384012 6.304974 179.999991 0.000005 -0.888998 118.467405 -7.825503 -5.982049 -0.000001 -0.000002 1.152110 78.570569 7.748351 -1.638431 28.448573 -7.345711 0.380259 -59.339843 165.110712 -4.756622 -0.000023 -0.000004 -0.798126 -64.363912 5.988484 4.788517 -0.000005 0.000000 -1.254300 76.064955 -6.729852 -2.065083 32.272579 7.303469 -0.880247 
48.005295 -16.093510 83.694191 14.573027 0.736360 -0.094241 1.418384 -0.543643 0.121149 6.841111 -1.080156 0.260763 8.486315 -1.076931 0.273767 -9.680870 5.982517 0.197600 -8.236262 -2.295998 -1.164102 -7.292408 -58.518957 -8.576296 -52.922635 -128.661462 -45.115568 -0.000000 0.000000 -0.000000 31.673052 -11.694010 2.382758 0.000002 0.000002 -3.006309 -4.999676 -7.999037 0.000012 -8.801616 60.498093 10.495597 -57.617249 119.787530 62.922681 0.000001 0.000000 0.000001 43.684469 11.469490 -3.573524 -0.000001 -0.000004 2.999982 -4.999910 7.999185 -0.000063 -57.590830 -168.423340 6.277753 179.999991 0.000004 -0.888001 118.810485 -7.860012 -5.967160 -0.000000 -0.000002 1.143870 78.480007 7.749335 -1.621837 28.469892 -7.345561 0.382789 -59.001496 165.168099 -4.737961 -0.000024 -0.000003 -0.798021 -64.016740 6.034575 4.787148 -0.000003 -0.000000 -1.241100 75.978601 -6.729411 -2.074383 32.288842 7.303135 -0.881943 
47.983196 -16.173920 83.844795 14.510991 0.726513 -0.086169 1.405514 -0.544323 0.123644 6.815389 -1.081585 0.265708 8.460607 -1.078299 0.278712 -9.593936 6.036047 0.192238 -8.248351 -2.334882 -1.176786 -7.292528 -58.511813 -8.575894 -52.917772 -128.694465 -44.910095 0.000000 0.000000 0.000000 31.161987 -11.661361 2.342470 0.000001 0.000001 -3.006309 -4.999673 -7.999038 0.000012 -8.748698 60.563178 10.437919 -57.634454 119.725334 62.884643 -0.000000 0.000000 -0.000001 43.412293 11.528291 -3.581542 -0.000005 -0.000005 2.999981 -4.999908 7.999185 -0.000063 -57.259187 -168.462190 6.249594 179.999991 0.000006 -0.887004 119.154481 -7.893417 -5.952238 -0.000000 -0.000003 1.135670 78.388797 7.750138 -1.604614 28.490891 -7.345418 0.385291 -58.662842 165.226183 -4.719162 -0.000025 -0.000005 -0.797937 -63.669070 6.079767 4.784946 -0.000006 -0.000000 -1.227999 75.891680 -6.728946 -2.083911 32.304998 7.302810 -0.883636 
47.986996 -16.263416 84.010590 14.448253 0.716714 -0.077762 1.392713 -0.544803 0.125990 6.789805 -1.082665 0.270345 8.435014 -1.079330 0.283348 -9.504601 6.087283 0.187310 -8.261919 -2.373498 -1.188290 -7.292835 -58.507182 -8.575888 -52.917044 -128.726376 -44.708793 -0.000000 -0.000000 -0.000000 30.653216 -11.626338 2.301848 -0.000000 0.000001 -3.006309 -4.999675 -7.999037 0.000012 -8.697242 60.624602 10.381708 -57.647042 119.666075 62.839352 -0.000000 0.000001 0.000001 43.136166 11.586334 -3.588296 -0.000002 -0.000006 2.999979 -4.999911 7.999184 -0.000064 -56.926717 -168.501491 6.221903 179.999991 0.000004 -0.885994 119.499569 -7.925732 -5.935249 -0.000003 -0.000001 1.127470 78.296904 7.750826 -1.586952 28.511303 -7.345272 0.387714 -58.323907 165.284909 -4.700320 -0.000022 -0.000005 -0.797866 -63.321099 6.123928 4.781976 -0.000005 -0.000000 -1.215020 75.804356 -6.728368 -2.093554 32.321155 7.302487 -0.885361 
47.985294 -16.339911 84.186890 14.384518 0.707038 -0.068964 1.380021 -0.545038 0.128141 6.764444 -1.083328 0.274579 8.409652 -1.079945 0.287577 -9.412873 6.135730 0.183093 -8.276892 -2.411676 -1.198224 -7.293139 -58.505345 -8.576114 -52.920856 -128.757481 -44.511728 -0.000000 0.000000 0.000000 30.146447 -11.588913 2.260865 0.000000 0.000002 -3.006310 -4.999678 -7.999038 0.000012 -8.648136 60.681320 10.327962 -57.652370 119.611065 62.783324 0.000000 0.000001 0.000001 42.854478 11.643883 -3.593729 -0.000004 -0.000005 2.999981 -4.999912 7.999185 -0.000062 -56.593698 -168.540682 6.193714 179.999991 0.000005 -0.885994 119.845873 -7.957541 -5.919074 0.000001 -0.000003 1.119271 78.204286 7.751386 -1.568656 28.531097 -7.345118 0.390076 -57.984481 165.344181 -4.681388 -0.000026 -0.000004 -0.797798 -62.972917 6.166927 4.778110 -0.000003 -0.000000 -1.202191 75.716424 -6.727708 -2.103418 32.337411 7.302169 -0.887118 
47.971897 -16.431311 84.349602 14.319787 0.697561 -0.059721 1.367482 -0.544982 0.130050 6.739381 -1.083473 0.278311 8.384588 -1.080054 0.291298 -9.318789 6.180911 0.179876 -8.293223 -2.449279 -1.206196 -7.293321 -58.506752 -8.576439 -52.928796 -128.788736 -44.317822 -0.000000 0.000000 -0.000000 29.641337 -11.548895 2.219412 0.000003 0.000002 -3.006310 -4.999678 -7.999038 0.000012 -8.602376 60.732266 10.277724 -57.650751 119.560563 62.716518 0.000000 -0.000001 0.000000 42.565677 11.700959 -3.597550 0.000001 -0.000005 2.999981 -4.999913 7.999186 -0.000064 -56.259739 -168.580202 6.165535 179.999991 0.000004 -0.884996 120.193748 -7.988400 -5.900784 -0.000000 -0.000002 1.111059 78.111116 7.751669 -1.549744 28.549994 -7.344978 0.392335 -57.644570 165.403932 -4.662387 -0.000020 -0.000005 -0.797727 -62.624597 6.208781 4.773564 -0.000005 -0.000000 -1.189530 75.627884 -6.726940 -2.113509 32.353964 7.301839 -0.888966 
47.967396 -16.518822 84.521881 14.253948 0.688355 -0.049979 1.355150 -0.544592 0.131674 6.714714 -1.083042 0.281445 8.359924 -1.079588 0.294416 -9.222350 6.222339 0.177943 -8.310838 -2.486158 -1.211819 -7.293192 -58.511765 -8.576680 -52.942572 -128.820045 -44.128674 -0.000000 -0.000000 -0.000000 29.137409 -11.506270 2.177438 0.000002 0.000002 -3.006310 -4.999677 -7.999036 0.000012 -8.560941 60.776471 10.232125 -57.637992 119.516399 62.633688 0.000001 0.000000 0.000001 42.267847 11.757873 -3.599592 -0.000004 -0.000006 2.999978 -4.999914 7.999185 -0.000064 -55.924735 -168.619407 6.136294 179.999991 0.000005 -0.884995 120.543290 -8.018838 -5.882248 -0.000002 -0.000002 1.102799 78.017207 7.751789 -1.530100 28.567978 -7.344833 0.394482 -57.303955 165.464652 -4.644166 -0.000022 -0.000004 -0.797640 -62.276340 6.249269 4.768218 -0.000006 -0.000001 -1.177048 75.538839 -6.726016 -2.123806 32.370940 7.301522 -0.890921 
47.956596 -16.600512 84.678696 14.186920 0.679498 -0.039685 1.343051 -0.543823 0.132965 6.690539 -1.081933 0.283882 8.335733 -1.078458 0.296831 -9.123566 6.259543 0.177589 -8.329703 -2.522175 -1.214701 -7.292625 -58.520842 -8.576724 -52.962663 -128.851710 -43.944372 -0.000000 -0.000000 0.000000 28.634349 -11.460995 2.134939 -0.000000 0.000002 -3.006310 -4.999674 -7.999037 0.000012 -8.524802 60.812883 10.192196 -57.614531 119.478915 62.534897 -0.000000 -0.000002 -0.000000 41.959539 11.814679 -3.599625 -0.000004 -0.000005 2.999981 -4.999913 7.999183 -0.000063 -55.588342 -168.659350 6.107587 179.999991 0.000004 -0.884000 120.894717 -8.048402 -5.862562 -0.000001 -0.000002 1.094489 77.922650 7.751662 -1.509841 28.584741 -7.344696 0.396496 -56.962794 165.525127 -4.625098 -0.000026 -0.000004 -0.797531 -61.928301 6.288288 4.762041 -0.000004 0.000000 -1.164780 75.449138 -6.724932 -2.134623 32.388412 7.301207 -0.892995 
